<?xml version="1.0" encoding="UTF-8" standalone="no"?>
<!-- Created with Inkscape (http://www.inkscape.org/) -->

<svg
   width="50"
   height="50"
   viewBox="0 0 13.229167 13.229167"
   version="1.1"
   id="svg1"
   xml:space="preserve"
   inkscape:version="1.4 (e7c3feb100, 2024-10-09)"
   sodipodi:docname="web_logo.svg"
   inkscape:export-filename="arranging_orchids_icon.png"
   inkscape:export-xdpi="300"
   inkscape:export-ydpi="300"
   xmlns:inkscape="http://www.inkscape.org/namespaces/inkscape"
   xmlns:sodipodi="http://sodipodi.sourceforge.net/DTD/sodipodi-0.dtd"
   xmlns="http://www.w3.org/2000/svg"
   xmlns:svg="http://www.w3.org/2000/svg"><sodipodi:namedview
     id="namedview1"
     pagecolor="#505050"
     bordercolor="#eeeeee"
     borderopacity="1"
     inkscape:showpageshadow="0"
     inkscape:pageopacity="0"
     inkscape:pagecheckerboard="0"
     inkscape:deskcolor="#505050"
     inkscape:document-units="mm"
     inkscape:zoom="24.263158"
     inkscape:cx="24.996746"
     inkscape:cy="19"
     inkscape:window-width="1920"
     inkscape:window-height="1048"
     inkscape:window-x="0"
     inkscape:window-y="0"
     inkscape:window-maximized="1"
     inkscape:current-layer="layer1"
     showgrid="false" /><defs
     id="defs1"><marker
       markerWidth="0.63628411"
       markerHeight="0.99999994"
       refX="0"
       refY="0"
       orient="auto-start-reverse"
       id="CapButt"
       viewBox="0 0 0.63628413 1"
       inkscape:stockid="Butt cap"
       style="overflow:visible"
       preserveAspectRatio="xMidYMid"
       inkscape:isstock="true"
       inkscape:collect="always"><path
         style="fill:context-stroke;stroke-linecap:butt"
         d="M 0,-1 H 0.585 C 1.107,-1 1.369,-0.369 1,0 1.369,0.369 1.107,1 0.585,1 H 0 L -0.1,0 Z"
         sodipodi:nodetypes="sssssscsss"
         transform="scale(0.5)"
         id="path64" /></marker><mask
       maskUnits="userSpaceOnUse"
       id="mask40"><path
         d="m 73.028339,417.59328 7.083891,-2.75781 q 1.99086,-0.47908 3.098059,0.68363 1.178322,1.14562 1.910252,2.62427 0.78595,1.39047 1.43234,2.51365 0.64638,1.12316 0.988589,2.54519 0.342199,1.42203 -0.720529,3.25739 -1.008692,1.74709 -2.867972,3.39807 -3.968718,3.5125 -8.94584,4.71024 -4.90601,1.18063 -9.16146,1.00116 -4.255418,-0.17944 -8.289618,-1.31477 -6.29875,-1.79382 -13.497902,-6.07888 -7.128078,-4.30218 -11.516238,-7.53367 L 17.31964,408.96029 q -3.2072,-2.38741 -5.6429,-3.75695 l 8.77766,36.47506 q 0.68441,2.84404 -0.94444,4.51475 -0.60834,0.59772 -1.53268,0.82015 l -10.1674999,2.44679 q -1.91974,0.46199 -2.9756301,-0.48744 -1.7246899,-1.54064 -2.08401,-3.03374 l -23.64663,-98.26223 q -0.59887,-2.48856 0.23609,-4.64518 0.88895,-2.24486 3.87519,-2.96347 l 31.71125,-7.63127 q 42.305391,-10.18072 50.347301,23.23698 3.695848,15.3579 -5.165162,28.54751 -8.357949,12.46677 -22.933779,15.97443 -2.55964,0.61595 -4.991531,0.8251 l 10.969842,7.13857 q 9.435989,6.07859 14.298308,7.84201 8.751581,3.2345 15.57732,1.59192 z M 8.4086401,391.62297 q 8.4793599,-0.0849 14.9495599,-1.6419 6.541349,-1.57417 11.369781,-4.01484 4.82841,-2.44065 8.177019,-6.02959 7.447759,-7.80984 4.761421,-18.97277 -2.412572,-10.0253 -11.183951,-13.02938 -7.37443,-2.51285 -18.32406,0.12216 l -19.12628996,4.60272 z"
         id="path40"
         style="font-size:53.1576px;font-family:Capriola;-inkscape-font-specification:Capriola;letter-spacing:0px;word-spacing:0px;fill:#ffffff;stroke:#ffffff;stroke-width:4.08226;stroke-linecap:round;stroke-linejoin:round;stroke-dasharray:8.16451, 8.16451;stroke-dashoffset:0;marker-mid:url(#CapButt);paint-order:normal" /></mask><mask
       maskUnits="userSpaceOnUse"
       id="mask41"><path
         d="m 162.7461,425.35008 q 0,3.87596 -3.80283,3.87596 h -7.09377 q -2.85208,0 -3.43715,-1.09696 -0.58507,-1.17012 -0.65818,-2.04772 -0.0732,-0.95068 -0.29255,-2.26706 -0.43876,-3.58341 -1.24322,-7.75189 -5.70421,10.45776 -17.91716,13.82181 -4.31475,1.17009 -9.50704,1.17009 -5.19234,0 -10.38468,-1.75514 -5.19229,-1.68204 -9.214539,-5.04606 -9.068277,-7.60565 -9.068277,-19.96484 0,-13.52931 9.945876,-20.69616 8.1907,-5.77737 21.06178,-5.77737 12.87111,0 21.79315,7.53251 0.21942,-2.48645 0.21942,-6.21615 0,-3.72973 -1.46264,-7.4594 -1.46265,-3.72967 -4.16846,-6.21615 -5.558,-4.89981 -15.50387,-4.89981 -8.92199,0 -18.13655,4.89981 -1.75514,0.95071 -3.0715,0.95071 -1.974557,0 -3.802828,-3.87597 -1.974559,-3.94906 -1.974559,-5.70425 0,-3.21776 4.826688,-6.21612 9.214539,-5.70424 24.645219,-5.70424 14.04123,0 23.25574,7.67879 10.89655,9.21452 10.89655,26.03471 0,7.45938 -2.41329,18.79473 6.21612,17.69782 6.50867,27.93617 z m -48.998,-31.00766 q -2.99834,2.19392 -4.3147,4.38785 -1.24327,2.19395 -1.24327,5.19231 0,2.92529 1.02385,5.26548 1.09697,2.26708 2.99839,3.80283 4.0222,3.14465 8.99512,3.14465 5.04608,0 8.26384,-1.17012 3.21778,-1.17009 5.558,-2.99839 5.04605,-3.94907 5.04605,-8.33694 -0.43878,-5.48484 -6.06991,-8.62949 -5.04603,-2.92526 -11.92038,-2.92526 -5.33858,0 -8.33699,2.26708 z"
         id="path42"
         style="font-size:53.1576px;font-family:Capriola;-inkscape-font-specification:Capriola;letter-spacing:0px;word-spacing:0px;fill:#ffffff;stroke:#ffffff;stroke-width:4.08226;stroke-linecap:round;stroke-linejoin:round;stroke-dasharray:8.16451, 8.16451;stroke-dashoffset:0;marker-mid:url(#CapButt);paint-order:normal" /></mask></defs><g
     inkscape:label="Layer 1"
     inkscape:groupmode="layer"
     id="layer1"
     transform="translate(-192.53261,-4163.5176)"><g
       id="g132"
       transform="matrix(0.23296577,0,0,0.23296577,403.91533,3914.5562)"
       style="fill:#000000"><g
         id="g131"
         transform="matrix(0.66921268,0,0,0.66921268,-921.49314,407.60363)"
         style="fill:#000000"><text
           xml:space="preserve"
           style="font-weight:500;font-size:39.7819px;line-height:44.7546px;font-family:'Libre Franklin';-inkscape-font-specification:'Libre Franklin Medium';text-align:end;letter-spacing:0px;word-spacing:0px;text-anchor:end;fill:#000000;stroke-width:1.08431;stroke-linecap:round;stroke-linejoin:round"
           x="-1008.708"
           y="51.042122"
           id="text130"
           transform="rotate(-90)"><tspan
             sodipodi:role="line"
             id="tspan130"
             style="fill:#000000;stroke-width:1.08431"
             x="-1008.708"
             y="51.042122">GIL</tspan></text><text
           xml:space="preserve"
           style="font-weight:500;font-size:39.7819px;line-height:44.7546px;font-family:'Libre Franklin';-inkscape-font-specification:'Libre Franklin Medium';text-align:end;letter-spacing:0px;word-spacing:0px;text-anchor:end;fill:#000000;stroke-width:1.08431;stroke-linecap:round;stroke-linejoin:round"
           x="-986.30188"
           y="84.686836"
           id="text131"
           transform="rotate(-90)"><tspan
             sodipodi:role="line"
             id="tspan131"
             style="fill:#000000;stroke-width:1.08431"
             x="-986.30188"
             y="84.686836">ANK</tspan></text></g></g></g></svg>
